<svg width="14" height="15" viewBox="0 0 14 15" fill="none" xmlns="http://www.w3.org/2000/svg">
<path d="M7 14.6524C10.85 14.6524 14 11.3556 14 7.32621C14 3.29679 10.85 0 7 0C3.15 0 0 3.29679 0 7.32621C0 11.3556 3.15 14.6524 7 14.6524ZM7.21 3.87556C7.35 3.74369 7.518 3.6631 7.7 3.6631C7.889 3.6631 8.05 3.74369 8.197 3.87556C8.33 4.02941 8.4 4.20524 8.4 4.39572C8.4 4.59353 8.33 4.76203 8.197 4.91589C8.05 5.05508 7.889 5.12835 7.7 5.12835C7.518 5.12835 7.35 5.05508 7.21 4.91589C7.077 4.76203 7 4.59353 7 4.39572C7 4.20524 7.077 4.02941 7.21 3.87556ZM5.46 7.30423C5.46 7.30423 6.979 6.04412 7.532 5.99284C8.05 5.94888 7.945 6.57161 7.896 6.89396L7.889 6.93792C7.791 7.32621 7.672 7.79508 7.553 8.24198C7.287 9.26033 7.028 10.2567 7.091 10.4398C7.161 10.6889 7.595 10.3739 7.91 10.1541C7.952 10.1248 7.987 10.0955 8.022 10.0735C8.022 10.0735 8.078 10.0149 8.134 10.0955C8.148 10.1175 8.162 10.1395 8.176 10.1541C8.239 10.2567 8.274 10.2933 8.19 10.3519L8.162 10.3666C8.008 10.4765 7.35 10.96 7.084 11.1358C6.797 11.3336 5.698 11.993 5.866 10.7109C6.013 9.80979 6.209 9.03321 6.363 8.42514C6.65 7.32621 6.776 6.82803 6.132 7.26027C5.873 7.42145 5.719 7.52401 5.628 7.58995C5.551 7.64856 5.544 7.64856 5.495 7.55332L5.474 7.50936L5.439 7.45075C5.39 7.37749 5.39 7.37017 5.46 7.30423Z" fill="#164169"/>
</svg>
